<?xml version="1.0" encoding="UTF-8" standalone="no"?>
<svg
   id="Layer_1"
   viewBox="0 0 250 250"
   version="1.1"
   sodipodi:docname="mark.svg"
   inkscape:version="1.3.2 (091e20ef0f, 2023-11-25)"
   inkscape:export-filename="mark.png"
   inkscape:export-xdpi="96"
   inkscape:export-ydpi="96"
   xmlns:inkscape="http://www.inkscape.org/namespaces/inkscape"
   xmlns:sodipodi="http://sodipodi.sourceforge.net/DTD/sodipodi-0.dtd"
   xmlns="http://www.w3.org/2000/svg"
   xmlns:svg="http://www.w3.org/2000/svg">
  <defs
     id="defs1">
    <clipPath
       clipPathUnits="userSpaceOnUse"
       id="clipPath5">
      <path
         d="M 0,500 H 500 V 0 H 0 Z"
         transform="translate(-77.815202,-291.6807)"
         id="path5" />
    </clipPath>
    <clipPath
       clipPathUnits="userSpaceOnUse"
       id="clipPath7">
      <path
         d="M 0,500 H 500 V 0 H 0 Z"
         transform="translate(-158.4237,-228.4566)"
         id="path7" />
    </clipPath>
    <clipPath
       clipPathUnits="userSpaceOnUse"
       id="clipPath9">
      <path
         d="M 0,500 H 500 V 0 H 0 Z"
         transform="translate(-167.4264,-278.0118)"
         id="path9" />
    </clipPath>
    <clipPath
       clipPathUnits="userSpaceOnUse"
       id="clipPath11">
      <path
         d="M 0,500 H 500 V 0 H 0 Z"
         transform="translate(-67.736201,-228.4566)"
         id="path11" />
    </clipPath>
  </defs>
  <sodipodi:namedview
     id="namedview1"
     pagecolor="#505050"
     bordercolor="#ffffff"
     borderopacity="1"
     inkscape:showpageshadow="0"
     inkscape:pageopacity="0"
     inkscape:pagecheckerboard="1"
     inkscape:deskcolor="#505050"
     inkscape:zoom="2.27"
     inkscape:cx="185.90308"
     inkscape:cy="133.9207"
     inkscape:window-width="1698"
     inkscape:window-height="1351"
     inkscape:window-x="26"
     inkscape:window-y="23"
     inkscape:window-maximized="0"
     inkscape:current-layer="Layer_1" />
  <path
     id="path4"
     d="m 0,0 h -0.009 c -1.045,0 -2.028,-0.407 -2.77,-1.147 -0.75,-0.749 -1.163,-1.745 -1.163,-2.806 v -59.271 c 0,-2.174 1.775,-3.946 3.958,-3.952 9.2,-0.022 24.615,-1.939 35.249,-13.068 v 62.029 c 0,0.737 -0.188,1.429 -0.544,2.002 C 25.994,-2.157 9.221,-0.022 0,0"
     style="fill:#98abea;fill-opacity:1;fill-rule:nonzero;stroke:none"
     transform="matrix(2.2632587,0,0,-2.2632587,38.242271,29)"
     clip-path="url(#clipPath5)" />
  <path
     id="path6"
     d="m 0,0 v 59.272 c 0,1.06 -0.413,2.057 -1.163,2.805 -0.742,0.74 -1.726,1.147 -2.769,1.147 h -0.01 c -9.221,-0.022 -25.993,-2.157 -34.721,-16.213 -0.356,-0.572 -0.543,-1.265 -0.543,-2.001 V -17.019 C -28.572,-5.891 -13.158,-3.973 -3.957,-3.951 -1.775,-3.946 0,-2.173 0,0"
     style="fill:#98abea;fill-opacity:1;fill-rule:nonzero;stroke:none"
     transform="matrix(2.2632587,0,0,-2.2632587,220.68016,172.09248)"
     clip-path="url(#clipPath7)" />
  <path
     id="path8"
     d="m 0,0 h -2.866 v -49.555 c 0,-5.55 -4.521,-10.075 -10.079,-10.089 -7.804,-0.018 -20.672,-1.544 -29.785,-10.169 15.761,3.859 32.376,1.35 41.845,-0.808 1.183,-0.269 2.404,0.009 3.352,0.764 0.944,0.753 1.485,1.879 1.485,3.087 V -3.952 C 3.952,-1.773 2.179,0 0,0"
     style="fill:#0066ff;fill-opacity:1;fill-rule:nonzero;stroke:none"
     transform="matrix(2.2632587,0,0,-2.2632587,241.0556,59.936255)"
     clip-path="url(#clipPath9)" />
  <path
     id="path10"
     d="m 0,0 v 49.555 h -2.866 c -2.179,0 -3.952,-1.773 -3.952,-3.952 v -62.816 c 0,-1.209 0.541,-2.335 1.485,-3.088 0.947,-0.754 2.168,-1.034 3.352,-0.763 9.469,2.158 26.085,4.666 41.845,0.807 -9.113,8.625 -21.981,10.15 -29.785,10.169 C 4.522,-10.075 0,-5.549 0,0"
     style="fill:#0066ff;fill-opacity:1;fill-rule:nonzero;stroke:none"
     transform="matrix(2.2632587,0,0,-2.2632587,15.430898,172.09248)"
     clip-path="url(#clipPath11)" />
</svg>
